Coordinates
version=1
nRows=14
nColumns=24
inDegrees=yes

Units are S.I. units (second, meters, Newtons, ...)
Angles are in degrees.

endheader
time	pelvis_tilt	pelvis_list	pelvis_rotation	pelvis_tx	pelvis_ty	pelvis_tz	hip_flexion_r	hip_adduction_r	hip_rotation_r	knee_angle_r	ankle_angle_r	subtalar_angle_r	mtp_angle_r	hip_flexion_l	hip_adduction_l	hip_rotation_l	knee_angle_l	ankle_angle_l	subtalar_angle_l	mtp_angle_l	lumbar_extension	lumbar_bending	lumbar_rotation
      1.24566667	     -2.90351212	      1.70598432	     -2.94223912	      0.22444593	      1.08075317	      0.27824761	     16.12779562	     -4.70392937	     -5.54012835	    -64.97327156	      3.49501749	     -2.08784347	      5.73194992	     10.54684229	      2.54098834	      1.71953131	    -15.40002423	     11.37990799	      2.98643326	     -0.63767990	     -6.11920990	     -0.72805301	     -0.90451788
      1.24983333	     -2.92740880	      1.54014127	     -2.96285135	      0.22988660	      1.08163823	      0.27817796	     16.62105250	     -4.49407177	     -5.66202325	    -64.58596008	      3.77099315	     -1.90936569	      5.72381504	     10.03008942	      2.36487850	      1.67784555	    -14.96588884	     11.42750750	      3.07333089	     -0.64936529	     -6.10810596	     -0.52883553	     -0.97232437
      1.25400000	     -2.94498952	      1.38140931	     -2.97528083	      0.23527969	      1.08247790	      0.27810118	     17.09938964	     -4.29069970	     -5.78117078	    -64.14835152	      4.06098226	     -1.67656551	      5.71429369	      9.51101340	      2.19948884	      1.66728437	    -14.53320602	     11.49126908	      3.17089070	     -0.66513234	     -6.13043572	     -0.33567785	     -1.07993435
      1.25816667	     -2.94379057	      1.21590159	     -2.98269175	      0.24071139	      1.08332157	      0.27801564	     17.53608344	     -4.08317065	     -5.91967467	    -63.64480473	      4.33776285	     -1.50837268	      5.71001674	      8.96997555	      2.02769707	      1.63441519	    -14.09952232	     11.53570335	      3.25336087	     -0.67811604	     -6.14536751	     -0.12018807	     -1.15939683
      1.26233333	     -2.94580091	      1.06371627	     -2.98021996	      0.24611056	      1.08410045	      0.27793896	     17.96736639	     -3.88888764	     -6.06017985	    -63.09567379	      4.61717535	     -1.30266027	      5.70337835	      8.43747430	      1.87282955	      1.63622925	    -13.67050200	     11.60162937	      3.33041675	     -0.69702044	     -6.18010358	      0.05200979	     -1.28886764
      1.26650000	     -2.95220060	      0.90565656	     -2.98164805	      0.25152595	      1.08481961	      0.27785365	     18.39147093	     -3.68744232	     -6.20604207	    -62.49730405	      4.88530190	     -1.17933568	      5.70218235	      7.90941695	      1.71076981	      1.61454372	    -13.23993726	     11.64427151	      3.40463815	     -0.70939045	     -6.19050571	      0.26981109	     -1.36102565
      1.27066667	     -2.92648307	      0.75316741	     -2.96458027	      0.25691731	      1.08553652	      0.27777068	     18.76290949	     -3.49650792	     -6.36625803	    -61.84250613	      5.15217578	     -1.00400488	      5.69729544	      7.35561954	      1.55879823	      1.62965324	    -12.82634212	     11.71559761	      3.46190880	     -0.73113186	     -6.25800854	      0.43817890	     -1.51075741
      1.27483333	     -2.94618969	      0.61276630	     -2.96321414	      0.26232865	      1.08610643	      0.27770940	     19.18279210	     -3.31147943	     -6.51275375	    -61.16038917	      5.41109854	     -0.92226067	      5.69691163	      6.84882467	      1.41504972	      1.61643420	    -12.40648236	     11.76410052	      3.52836311	     -0.74344971	     -6.26017083	      0.63403996	     -1.57987062
      1.27900000	     -2.91809016	      0.46542365	     -2.93642940	      0.26771905	      1.08670917	      0.27761843	     19.52644128	     -3.12907912	     -6.68706376	    -60.41365718	      5.65522634	     -0.79671827	      5.68866147	      6.29869508	      1.27108508	      1.65011588	    -12.00241011	     11.84612543	      3.56337629	     -0.77462155	     -6.33151325	      0.81111320	     -1.76287199
      1.28316667	     -2.92177928	      0.31164754	     -2.91864697	      0.27311663	      1.08721306	      0.27756139	     19.89216250	     -2.92818771	     -6.84661879	    -59.61830751	      5.89440166	     -0.72623521	      5.68512793	      5.79187092	      1.11382394	      1.64833897	    -11.61661693	     11.90247008	      3.60640132	     -0.79425562	     -6.35151534	      0.98874819	     -1.84647291
      1.28733333	     -2.90891266	      0.18794866	     -2.89746833	      0.27850582	      1.08765078	      0.27749465	     20.23793747	     -2.76856251	     -7.01203612	    -58.80356714	      6.12762390	     -0.66389172	      5.67505894	      5.26300997	      0.99406216	      1.68112048	    -11.21730810	     11.97746793	      3.63167631	     -0.82922223	     -6.40595955	      1.15549972	     -2.00058159
      1.29150000	     -2.89935219	      0.05712055	     -2.87758798	      0.28389730	      1.08803870	      0.27745577	     20.57061622	     -2.59574654	     -7.17542640	    -57.93659947	      6.34485703	     -0.61803879	      5.66609386	      4.74656303	      0.86323038	      1.69654969	    -10.83732494	     12.05211727	      3.65685655	     -0.85849436	     -6.44627514	      1.31844526	     -2.10099027
      1.29566667	     -2.92919416	     -0.07218624	     -2.85649943	      0.28930309	      1.08828879	      0.27743057	     20.93326985	     -2.41976161	     -7.33513233	    -57.03022111	      6.56569364	     -0.59150029	      5.66088541	      4.28654853	      0.72991672	      1.69651280	    -10.48810720	     12.12338730	      3.68692402	     -0.87730251	     -6.43929987	      1.47072982	     -2.17459892
      1.29983333	     -2.94044065	     -0.19085501	     -2.83526579	      0.29470420	      1.08850696	      0.27741457	     21.26493324	     -2.25705202	     -7.49432819	    -56.08708967	      6.77043527	     -0.57165471	      5.65475789	      3.80717967	      0.60996744	      1.70765144	    -10.13884686	     12.20882794	      3.71216821	     -0.89531706	     -6.45737335	      1.61872145	     -2.26563259
